# xmcd
# 
# Track frame offsets:
#     150
#     17560
#     32356
#     48732
#     65109
#     83089
#     104783
# 
# Disc length: 1683
# 
# Revision: 0
# Processed by: cddbd v1.5.2PL0 Copyright (c) Steve Scherf et al.
# Submitted via: BonkEnc v1.0.8
# 
DISCID=59069107
DTITLE=MEG - Journey
DYEAR=2009
DGENRE=JPop
TTITLE0=Droplets
TTITLE1=Questions
TTITLE2=Rush
TTITLE3=Dreamscape
TTITLE4=Just like that
TTITLE5=Journey
TTITLE6=Dawn (remix)
EXTD=
EXTT0=
EXTT1=
EXTT2=
EXTT3=
EXTT4=
EXTT5=
EXTT6=
PLAYORDER=
